# xmcd
#
# Track frame offsets: 
#        150
#        32587
#        54205
#        70747
#        93655
#        115620
#        141295
#        161670
#        187857
#        210887
#        237335
#        257527
#        287972
#
# Disc length: 4106 seconds
#
# Revision: 4
# Processed by: cddbd v1.5.2PL0 Copyright (c) Steve Scherf et al.
# Submitted via: ExactAudioCopy v0.99pb4
#
DISCID=ac10080d
DTITLE=Ronnie Earl, Pinetop Perkins, Calvin 'Fuzz' Jones, Wilie 'Big E
DTITLE=yes' Smith - Eye To Eye
DYEAR=1996
DGENRE=Blues
TTITLE0=How Long
TTITLE1=Country Girl
TTITLE2=Tops Boogie Woogie
TTITLE3=Eye To Eye
TTITLE4='Yonders Wall
TTITLE5=Ronnies Blues
TTITLE6=Shake For Me
TTITLE7=Miss Ida B.
TTITLE8=Kidney Stew
TTITLE9=I Woke Up  This Morning
TTITLE10=Take It Easy Baby
TTITLE11=Anna Lee
TTITLE12=Forty Four Blues
EXTD=
EXTT0=
EXTT1=\n
EXTT2=\n
EXTT3=\n
EXTT4=\n
EXTT5=\n
EXTT6=\n
EXTT7=\n
EXTT8=\n
EXTT9=\n
EXTT10=\n
EXTT11=\n
EXTT12=\n
PLAYORDER=
